<svg width="24" height="25" viewBox="0 0 24 25" fill="none" xmlns="http://www.w3.org/2000/svg">
<path d="M12 2.14111C14.717 2.14111 15.056 2.15111 16.122 2.20111C17.187 2.25111 17.912 2.41811 18.55 2.66611C19.21 2.92011 19.766 3.26411 20.322 3.81911C20.8305 4.31901 21.224 4.9237 21.475 5.59111C21.722 6.22811 21.89 6.95411 21.94 8.01911C21.987 9.08511 22 9.42411 22 12.1411C22 14.8581 21.99 15.1971 21.94 16.2631C21.89 17.3281 21.722 18.0531 21.475 18.6911C21.2247 19.3589 20.8311 19.9637 20.322 20.4631C19.822 20.9714 19.2173 21.3649 18.55 21.6161C17.913 21.8631 17.187 22.0311 16.122 22.0811C15.056 22.1281 14.717 22.1411 12 22.1411C9.283 22.1411 8.944 22.1311 7.878 22.0811C6.813 22.0311 6.088 21.8631 5.45 21.6161C4.78233 21.3656 4.17753 20.9721 3.678 20.4631C3.16941 19.9633 2.77593 19.3586 2.525 18.6911C2.277 18.0541 2.11 17.3281 2.06 16.2631C2.013 15.1971 2 14.8581 2 12.1411C2 9.42411 2.01 9.08511 2.06 8.01911C2.11 6.95311 2.277 6.22911 2.525 5.59111C2.77524 4.92329 3.1688 4.31843 3.678 3.81911C4.17767 3.31034 4.78243 2.91684 5.45 2.66611C6.088 2.41811 6.812 2.25111 7.878 2.20111C8.944 2.15411 9.283 2.14111 12 2.14111ZM12 7.14111C10.6739 7.14111 9.40215 7.6679 8.46447 8.60558C7.52678 9.54326 7 10.815 7 12.1411C7 13.4672 7.52678 14.739 8.46447 15.6766C9.40215 16.6143 10.6739 17.1411 12 17.1411C13.3261 17.1411 14.5979 16.6143 15.5355 15.6766C16.4732 14.739 17 13.4672 17 12.1411C17 10.815 16.4732 9.54326 15.5355 8.60558C14.5979 7.6679 13.3261 7.14111 12 7.14111ZM18.5 6.89111C18.5 6.55959 18.3683 6.24165 18.1339 6.00723C17.8995 5.77281 17.5815 5.64111 17.25 5.64111C16.9185 5.64111 16.6005 5.77281 16.3661 6.00723C16.1317 6.24165 16 6.55959 16 6.89111C16 7.22263 16.1317 7.54058 16.3661 7.775C16.6005 8.00942 16.9185 8.14111 17.25 8.14111C17.5815 8.14111 17.8995 8.00942 18.1339 7.775C18.3683 7.54058 18.5 7.22263 18.5 6.89111ZM12 9.14111C12.7956 9.14111 13.5587 9.45718 14.1213 10.0198C14.6839 10.5824 15 11.3455 15 12.1411C15 12.9368 14.6839 13.6998 14.1213 14.2624C13.5587 14.825 12.7956 15.1411 12 15.1411C11.2044 15.1411 10.4413 14.825 9.87868 14.2624C9.31607 13.6998 9 12.9368 9 12.1411C9 11.3455 9.31607 10.5824 9.87868 10.0198C10.4413 9.45718 11.2044 9.14111 12 9.14111Z" fill="#494949"/>
</svg>
