<?xml version="1.0" encoding="utf-8"?>
<!-- Uploaded to: SVG Repo, www.svgrepo.com, Generator: SVG Repo Mixer Tools -->
<svg fill="#000000" width="800px" height="800px" viewBox="-8 0 32 32" version="1.1" xmlns="http://www.w3.org/2000/svg">
<title>menu</title>
<path d="M15.4 12.6h-14.56c-0.48 0-0.84-0.36-0.84-0.84s0.36-0.84 0.84-0.84h14.52c0.48 0 0.84 0.36 0.84 0.84 0.040 0.44-0.36 0.84-0.8 0.84zM15.4 16.84h-14.56c-0.48 0-0.84-0.36-0.84-0.84s0.36-0.84 0.84-0.84h14.52c0.48 0 0.84 0.36 0.84 0.84s-0.36 0.84-0.8 0.84zM15.4 21.080h-14.56c-0.48 0-0.84-0.36-0.84-0.84s0.36-0.84 0.84-0.84h14.52c0.48 0 0.84 0.36 0.84 0.84s-0.36 0.84-0.8 0.84z"></path>
</svg>