<svg width="22" height="18" viewBox="0 0 22 18" fill="none" xmlns="http://www.w3.org/2000/svg">
<path d="M21.1623 2.79802C20.3989 3.13571 19.5893 3.35749 18.7603 3.45602C19.634 2.93345 20.288 2.11103 20.6003 1.14202C19.7803 1.63002 18.8813 1.97202 17.9443 2.15702C17.3149 1.4836 16.4807 1.03698 15.5713 0.886601C14.6618 0.736223 13.7282 0.890507 12.9156 1.32547C12.1029 1.76043 11.4567 2.4517 11.0774 3.29181C10.6981 4.13192 10.607 5.0738 10.8183 5.97102C9.15541 5.88767 7.52863 5.45554 6.04358 4.70268C4.55854 3.94982 3.24842 2.89306 2.1983 1.60102C1.82659 2.23947 1.63125 2.96524 1.6323 3.70402C1.6323 5.15402 2.3703 6.43502 3.4923 7.18502C2.82831 7.16411 2.17893 6.9848 1.5983 6.66202V6.71402C1.5985 7.67972 1.93267 8.61563 2.54414 9.36308C3.15562 10.1105 4.00678 10.6235 4.9533 10.815C4.33691 10.9821 3.6906 11.0067 3.0633 10.887C3.33016 11.7183 3.8503 12.4452 4.55089 12.9661C5.25147 13.487 6.09742 13.7758 6.9703 13.792C6.10278 14.4733 5.10947 14.977 4.04718 15.2742C2.98488 15.5714 1.87442 15.6563 0.779297 15.524C2.69099 16.7534 4.91639 17.4061 7.1893 17.404C14.8823 17.404 19.0893 11.031 19.0893 5.50402C19.0893 5.32402 19.0843 5.14202 19.0763 4.96402C19.8952 4.37218 20.6019 3.63904 21.1633 2.79902L21.1623 2.79802Z" fill="#494949"/>
</svg>
